<?xml version="1.0" encoding="UTF-8"?>
<svg xmlns="http://www.w3.org/2000/svg" version="1.1" width="200" height="200" viewBox="0 0 200 200"><rect x="0" y="0" width="200" height="200" fill="#ffffff"/><g transform="scale(6.897)"><g transform="translate(0,0)"><path fill-rule="evenodd" d="M8 0L8 1L9 1L9 2L10 2L10 3L11 3L11 1L13 1L13 2L12 2L12 4L11 4L11 5L10 5L10 4L9 4L9 5L10 5L10 8L9 8L9 6L8 6L8 8L9 8L9 9L7 9L7 8L6 8L6 9L7 9L7 10L6 10L6 11L4 11L4 13L3 13L3 16L4 16L4 17L0 17L0 21L4 21L4 20L5 20L5 21L7 21L7 20L5 20L5 18L6 18L6 19L8 19L8 22L9 22L9 24L8 24L8 26L9 26L9 27L8 27L8 29L13 29L13 28L15 28L15 29L16 29L16 28L15 28L15 27L17 27L17 26L16 26L16 24L15 24L15 23L16 23L16 21L18 21L18 22L17 22L17 24L18 24L18 22L19 22L19 25L18 25L18 26L19 26L19 25L20 25L20 26L21 26L21 28L19 28L19 27L18 27L18 28L19 28L19 29L21 29L21 28L23 28L23 29L26 29L26 28L27 28L27 27L28 27L28 28L29 28L29 25L28 25L28 24L27 24L27 25L26 25L26 23L28 23L28 22L26 22L26 23L25 23L25 20L26 20L26 21L27 21L27 20L29 20L29 18L28 18L28 15L29 15L29 12L28 12L28 11L27 11L27 9L26 9L26 10L25 10L25 9L24 9L24 10L23 10L23 11L21 11L21 10L22 10L22 9L23 9L23 8L22 8L22 9L21 9L21 8L17 8L17 9L16 9L16 7L17 7L17 6L18 6L18 7L19 7L19 5L20 5L20 7L21 7L21 5L20 5L20 4L21 4L21 3L20 3L20 1L21 1L21 0L20 0L20 1L19 1L19 3L20 3L20 4L18 4L18 3L17 3L17 5L16 5L16 7L15 7L15 6L14 6L14 5L12 5L12 4L15 4L15 3L16 3L16 2L17 2L17 1L18 1L18 0L16 0L16 2L15 2L15 3L14 3L14 0L11 0L11 1L9 1L9 0ZM11 5L11 7L12 7L12 9L10 9L10 10L9 10L9 11L6 11L6 12L8 12L8 13L6 13L6 14L4 14L4 16L7 16L7 17L6 17L6 18L9 18L9 19L10 19L10 20L9 20L9 21L10 21L10 22L11 22L11 26L10 26L10 27L9 27L9 28L12 28L12 27L14 27L14 25L13 25L13 24L14 24L14 22L15 22L15 17L14 17L14 18L12 18L12 19L11 19L11 17L13 17L13 16L16 16L16 18L17 18L17 17L20 17L20 19L21 19L21 18L24 18L24 17L27 17L27 16L26 16L26 15L25 15L25 16L24 16L24 17L23 17L23 15L22 15L22 12L20 12L20 13L18 13L18 12L19 12L19 11L20 11L20 10L19 10L19 9L17 9L17 11L18 11L18 12L17 12L17 14L16 14L16 15L14 15L14 14L15 14L15 13L14 13L14 11L15 11L15 12L16 12L16 11L15 11L15 10L14 10L14 11L13 11L13 10L12 10L12 9L15 9L15 7L14 7L14 6L13 6L13 7L12 7L12 5ZM13 7L13 8L14 8L14 7ZM0 8L0 12L1 12L1 11L2 11L2 12L3 12L3 11L2 11L2 8ZM3 8L3 9L4 9L4 10L5 10L5 8ZM28 8L28 9L29 9L29 8ZM10 10L10 11L9 11L9 13L8 13L8 14L6 14L6 15L8 15L8 14L9 14L9 13L10 13L10 12L11 12L11 13L13 13L13 14L11 14L11 16L12 16L12 15L13 15L13 14L14 14L14 13L13 13L13 11L12 11L12 10ZM18 10L18 11L19 11L19 10ZM23 11L23 14L24 14L24 13L25 13L25 14L27 14L27 15L28 15L28 13L27 13L27 11L26 11L26 13L25 13L25 12L24 12L24 11ZM0 13L0 16L1 16L1 13ZM20 13L20 14L19 14L19 15L18 15L18 14L17 14L17 15L18 15L18 16L19 16L19 15L20 15L20 16L21 16L21 13ZM9 16L9 18L10 18L10 16ZM4 17L4 18L3 18L3 19L2 19L2 20L3 20L3 19L4 19L4 18L5 18L5 17ZM18 18L18 19L16 19L16 20L18 20L18 21L19 21L19 22L20 22L20 21L19 21L19 20L18 20L18 19L19 19L19 18ZM25 18L25 19L28 19L28 18ZM12 19L12 21L13 21L13 20L14 20L14 19ZM21 21L21 24L24 24L24 21ZM12 22L12 23L13 23L13 22ZM22 22L22 23L23 23L23 22ZM9 24L9 25L10 25L10 24ZM12 25L12 26L13 26L13 25ZM22 25L22 27L24 27L24 26L26 26L26 25L24 25L24 26L23 26L23 25ZM27 25L27 26L28 26L28 25ZM25 27L25 28L26 28L26 27ZM0 0L0 7L7 7L7 0ZM1 1L1 6L6 6L6 1ZM2 2L2 5L5 5L5 2ZM22 0L22 7L29 7L29 0ZM23 1L23 6L28 6L28 1ZM24 2L24 5L27 5L27 2ZM0 22L0 29L7 29L7 22ZM1 23L1 28L6 28L6 23ZM2 24L2 27L5 27L5 24Z" fill="#000000"/></g></g></svg>
