<?xml version="1.0" encoding="UTF-8"?>
<svg xmlns="http://www.w3.org/2000/svg" version="1.1" width="200" height="200" viewBox="0 0 200 200"><rect x="0" y="0" width="200" height="200" fill="#ffffff"/><g transform="scale(6.897)"><g transform="translate(0,0)"><path fill-rule="evenodd" d="M8 0L8 4L9 4L9 5L8 5L8 7L9 7L9 6L10 6L10 9L11 9L11 8L12 8L12 9L13 9L13 10L15 10L15 11L14 11L14 12L13 12L13 11L12 11L12 12L11 12L11 13L10 13L10 14L9 14L9 15L8 15L8 16L5 16L5 15L7 15L7 14L6 14L6 13L9 13L9 12L10 12L10 11L11 11L11 10L8 10L8 9L7 9L7 8L4 8L4 11L3 11L3 9L2 9L2 8L0 8L0 9L2 9L2 10L0 10L0 12L1 12L1 15L3 15L3 16L2 16L2 17L1 17L1 16L0 16L0 18L2 18L2 19L3 19L3 20L0 20L0 21L3 21L3 20L4 20L4 19L8 19L8 22L9 22L9 23L8 23L8 25L9 25L9 24L10 24L10 22L9 22L9 21L12 21L12 22L11 22L11 24L12 24L12 25L13 25L13 26L15 26L15 27L14 27L14 28L13 28L13 27L12 27L12 28L11 28L11 25L10 25L10 26L9 26L9 27L8 27L8 29L9 29L9 27L10 27L10 28L11 28L11 29L12 29L12 28L13 28L13 29L15 29L15 27L16 27L16 29L19 29L19 27L18 27L18 26L19 26L19 25L20 25L20 26L21 26L21 25L25 25L25 20L24 20L24 19L26 19L26 18L27 18L27 19L29 19L29 13L28 13L28 11L29 11L29 8L25 8L25 9L24 9L24 8L23 8L23 9L22 9L22 10L21 10L21 9L20 9L20 8L21 8L21 5L19 5L19 2L20 2L20 3L21 3L21 1L19 1L19 0L18 0L18 1L19 1L19 2L17 2L17 1L16 1L16 0L15 0L15 1L14 1L14 0L13 0L13 1L11 1L11 2L12 2L12 5L13 5L13 1L14 1L14 2L15 2L15 1L16 1L16 2L17 2L17 3L16 3L16 4L14 4L14 5L16 5L16 7L17 7L17 8L16 8L16 9L14 9L14 7L15 7L15 6L14 6L14 7L13 7L13 6L12 6L12 7L11 7L11 3L10 3L10 2L9 2L9 0ZM17 3L17 4L16 4L16 5L17 5L17 7L18 7L18 9L16 9L16 11L15 11L15 12L16 12L16 15L14 15L14 17L16 17L16 18L17 18L17 19L16 19L16 20L15 20L15 21L13 21L13 20L14 20L14 19L15 19L15 18L13 18L13 17L12 17L12 16L13 16L13 15L12 15L12 16L11 16L11 19L10 19L10 17L5 17L5 16L4 16L4 18L8 18L8 19L10 19L10 20L12 20L12 21L13 21L13 22L15 22L15 21L16 21L16 24L15 24L15 23L14 23L14 25L16 25L16 26L18 26L18 25L19 25L19 24L20 24L20 23L19 23L19 24L18 24L18 25L16 25L16 24L17 24L17 22L18 22L18 21L19 21L19 22L20 22L20 21L19 21L19 20L20 20L20 18L21 18L21 19L22 19L22 20L23 20L23 19L24 19L24 18L23 18L23 19L22 19L22 18L21 18L21 17L25 17L25 18L26 18L26 17L28 17L28 16L27 16L27 15L28 15L28 13L27 13L27 10L26 10L26 11L25 11L25 10L23 10L23 12L22 12L22 11L20 11L20 9L19 9L19 7L20 7L20 6L19 6L19 5L18 5L18 3ZM18 6L18 7L19 7L19 6ZM12 7L12 8L13 8L13 7ZM5 9L5 11L6 11L6 12L4 12L4 13L2 13L2 14L3 14L3 15L5 15L5 13L6 13L6 12L9 12L9 11L8 11L8 10L7 10L7 9ZM18 9L18 10L17 10L17 13L20 13L20 15L22 15L22 16L23 16L23 14L25 14L25 13L20 13L20 11L19 11L19 9ZM6 10L6 11L7 11L7 10ZM1 11L1 12L3 12L3 11ZM18 11L18 12L19 12L19 11ZM12 12L12 13L11 13L11 14L12 14L12 13L13 13L13 14L15 14L15 13L13 13L13 12ZM26 13L26 14L27 14L27 13ZM17 14L17 15L16 15L16 17L18 17L18 18L19 18L19 17L21 17L21 16L19 16L19 17L18 17L18 15L19 15L19 14ZM9 15L9 16L10 16L10 15ZM25 15L25 17L26 17L26 15ZM12 19L12 20L13 20L13 19ZM17 19L17 20L16 20L16 21L18 21L18 19ZM6 20L6 21L7 21L7 20ZM27 20L27 21L26 21L26 22L27 22L27 23L28 23L28 24L27 24L27 25L26 25L26 26L25 26L25 27L22 27L22 28L21 28L21 27L20 27L20 29L26 29L26 26L27 26L27 29L28 29L28 28L29 28L29 25L28 25L28 24L29 24L29 20ZM21 21L21 24L24 24L24 21ZM27 21L27 22L28 22L28 21ZM22 22L22 23L23 23L23 22ZM12 23L12 24L13 24L13 23ZM27 25L27 26L28 26L28 25ZM0 0L0 7L7 7L7 0ZM1 1L1 6L6 6L6 1ZM2 2L2 5L5 5L5 2ZM22 0L22 7L29 7L29 0ZM23 1L23 6L28 6L28 1ZM24 2L24 5L27 5L27 2ZM0 22L0 29L7 29L7 22ZM1 23L1 28L6 28L6 23ZM2 24L2 27L5 27L5 24Z" fill="#000000"/></g></g></svg>
